<?xml version="1.0" standalone="no"?>
<!DOCTYPE svg PUBLIC "-//W3C//DTD SVG 20010904//EN"
 "http://www.w3.org/TR/2001/REC-SVG-20010904/DTD/svg10.dtd">
<svg version="1.0" xmlns="http://www.w3.org/2000/svg"
 width="621.000000pt" height="621.000000pt" viewBox="0 0 621.000000 621.000000"
 preserveAspectRatio="xMidYMid meet">
<metadata>
Created by potrace 1.11, written by Peter Selinger 2001-2013
</metadata>
<g transform="translate(0.000000,621.000000) scale(0.100000,-0.100000)"
fill="#000000" stroke="none">
<path d="M60 5330 l0 -210 185 0 185 0 0 210 0 210 -185 0 -185 0 0 -210z"/>
<path d="M510 5330 l0 -210 185 0 185 0 0 210 0 210 -185 0 -185 0 0 -210z"/>
<path d="M960 5330 l0 -210 175 0 175 0 0 210 0 210 -175 0 -175 0 0 -210z"/>
<path d="M1400 5330 l0 -210 185 0 185 0 0 210 0 210 -185 0 -185 0 0 -210z"/>
<path d="M4500 5330 l0 -210 185 0 185 0 0 210 0 210 -185 0 -185 0 0 -210z"/>
<path d="M4970 5330 l0 -210 180 0 180 0 0 210 0 210 -180 0 -180 0 0 -210z"/>
<path d="M5420 5330 l0 -210 170 0 170 0 0 210 0 210 -170 0 -170 0 0 -210z"/>
<path d="M5840 5330 l0 -210 170 0 170 0 0 210 0 210 -170 0 -170 0 0 -210z"/>
<path d="M60 4830 l0 -200 185 0 185 0 0 200 0 200 -185 0 -185 0 0 -200z"/>
<path d="M510 4830 l0 -200 185 0 185 0 0 200 0 200 -185 0 -185 0 0 -200z"/>
<path d="M960 4830 l0 -200 175 0 175 0 0 200 0 200 -175 0 -175 0 0 -200z"/>
<path d="M1400 4830 l0 -200 185 0 185 0 0 200 0 200 -185 0 -185 0 0 -200z"/>
<path d="M4500 4830 l0 -200 185 0 185 0 0 200 0 200 -185 0 -185 0 0 -200z"/>
<path d="M4970 4830 l0 -200 180 0 180 0 0 200 0 200 -180 0 -180 0 0 -200z"/>
<path d="M5420 4830 l0 -200 170 0 170 0 0 200 0 200 -170 0 -170 0 0 -200z"/>
<path d="M5840 4830 l0 -200 170 0 170 0 0 200 0 200 -170 0 -170 0 0 -200z"/>
<path d="M60 4325 l0 -215 185 0 185 0 0 215 0 215 -185 0 -185 0 0 -215z"/>
<path d="M510 4325 l0 -215 185 0 185 0 0 215 0 215 -185 0 -185 0 0 -215z"/>
<path d="M960 4325 l0 -215 175 0 175 0 0 215 0 215 -175 0 -175 0 0 -215z"/>
<path d="M1400 4325 l0 -215 185 0 185 0 0 215 0 215 -185 0 -185 0 0 -215z"/>
<path d="M4500 4325 l0 -215 185 0 185 0 0 215 0 215 -185 0 -185 0 0 -215z"/>
<path d="M4970 4325 l0 -215 180 0 180 0 0 215 0 215 -180 0 -180 0 0 -215z"/>
<path d="M5420 4325 l0 -215 170 0 170 0 0 215 0 215 -170 0 -170 0 0 -215z"/>
<path d="M5840 4325 l0 -215 170 0 170 0 0 215 0 215 -170 0 -170 0 0 -215z"/>
<path d="M60 3825 l0 -215 185 0 185 0 0 215 0 215 -185 0 -185 0 0 -215z"/>
<path d="M510 3825 l0 -215 185 0 185 0 0 215 0 215 -185 0 -185 0 0 -215z"/>
<path d="M960 3825 l0 -215 175 0 175 0 0 215 0 215 -175 0 -175 0 0 -215z"/>
<path d="M1400 3825 l0 -215 185 0 185 0 0 215 0 215 -185 0 -185 0 0 -215z"/>
<path d="M4500 3825 l0 -215 185 0 185 0 0 215 0 215 -185 0 -185 0 0 -215z"/>
<path d="M4970 3825 l0 -215 180 0 180 0 0 215 0 215 -180 0 -180 0 0 -215z"/>
<path d="M5420 3825 l0 -215 170 0 170 0 0 215 0 215 -170 0 -170 0 0 -215z"/>
<path d="M5840 3825 l0 -215 170 0 170 0 0 215 0 215 -170 0 -170 0 0 -215z"/>
<path d="M73 3388 c4 -79 13 -188 21 -244 19 -129 56 -307 66 -317 7 -8 327
70 343 83 5 4 0 52 -12 106 -24 117 -51 317 -51 378 0 24 -3 64 -6 90 l-7 46
-180 0 -180 0 6 -142z"/>
<path d="M514 3418 c12 -195 61 -484 82 -482 5 1 85 21 177 44 168 43 169 44
163 69 -24 109 -48 274 -53 369 l-6 112 -185 0 -185 0 7 -112z"/>
<path d="M950 3513 c0 -113 54 -463 72 -463 16 0 333 83 340 89 3 3 -2 49 -12
101 -11 52 -22 139 -26 193 l-7 97 -183 0 c-169 0 -184 -1 -184 -17z"/>
<path d="M1403 3428 c5 -92 30 -255 40 -265 3 -3 343 85 354 92 2 1 -4 33 -11
71 -8 38 -17 99 -21 137 l-7 67 -180 0 -181 0 6 -102z"/>
<path d="M4490 3487 c0 -24 -7 -85 -16 -136 -9 -51 -14 -94 -12 -95 13 -11
344 -94 349 -88 11 10 37 172 45 275 l7 87 -187 0 -186 0 0 -43z"/>
<path d="M4936 3493 c-3 -21 -6 -54 -6 -75 0 -20 -9 -89 -20 -154 -14 -82 -17
-120 -10 -124 27 -17 332 -92 339 -84 19 21 61 302 61 411 l0 63 -179 0 -178
0 -7 -37z"/>
<path d="M5371 3393 c-6 -76 -22 -189 -34 -252 -16 -75 -20 -114 -13 -117 30
-11 340 -93 343 -90 18 18 68 348 76 509 l5 87 -183 0 -182 0 -12 -137z"/>
<path d="M5820 3468 c0 -91 -27 -305 -54 -438 -13 -63 -23 -116 -22 -117 8 -9
347 -96 352 -91 3 4 18 69 34 145 29 144 45 271 56 456 l7 107 -187 0 -186 0
0 -62z"/>
<path d="M1646 3144 c-88 -24 -165 -45 -173 -48 -10 -4 -6 -26 18 -92 41 -116
105 -254 118 -254 6 0 78 39 161 87 112 64 150 91 146 102 -13 43 -102 251
-106 250 -3 0 -77 -20 -164 -45z"/>
<path d="M4416 3133 c-10 -32 -34 -91 -52 -132 -19 -41 -33 -75 -32 -76 16
-13 308 -175 315 -175 17 0 143 295 143 334 0 7 -66 29 -167 56 -93 24 -172
45 -178 47 -5 2 -18 -23 -29 -54z"/>
<path d="M1250 3039 c-233 -65 -213 -57 -206 -89 17 -88 155 -407 180 -416 10
-4 293 151 314 170 1 2 -18 45 -43 97 -25 52 -58 132 -74 179 -22 62 -35 85
-48 87 -10 0 -65 -12 -123 -28z"/>
<path d="M4841 2998 c-13 -40 -45 -120 -72 -177 -27 -57 -49 -107 -49 -112 0
-9 292 -179 308 -179 21 0 161 318 186 422 6 25 3 27 -46 42 -104 29 -285 76
-294 76 -6 0 -20 -33 -33 -72z"/>
<path d="M780 2913 c-91 -25 -167 -47 -170 -49 -7 -8 60 -201 112 -324 51
-121 108 -233 120 -234 4 -1 76 39 162 88 l154 90 -44 88 c-52 104 -75 158
-119 288 -18 52 -37 95 -41 96 -5 1 -83 -19 -174 -43z"/>
<path d="M5257 2848 c-21 -62 -65 -169 -98 -237 -32 -68 -59 -125 -59 -126 0
-2 262 -155 313 -182 12 -7 130 247 180 387 70 196 84 168 -111 219 -92 24
-171 46 -177 48 -5 2 -27 -47 -48 -109z"/>
<path d="M1803 2772 c-84 -48 -153 -92 -153 -98 0 -30 138 -203 260 -324 132
-133 297 -260 318 -246 12 7 185 306 180 311 -2 2 -32 25 -68 51 -136 100
-251 217 -339 347 -17 26 -35 47 -39 47 -4 0 -76 -40 -159 -88z"/>
<path d="M4240 2792 c-55 -83 -232 -262 -322 -326 -38 -26 -68 -52 -68 -57 0
-18 173 -309 184 -309 19 1 181 121 266 199 144 130 323 363 297 387 -18 16
-294 174 -304 174 -4 0 -28 -31 -53 -68z"/>
<path d="M347 2796 c-86 -24 -160 -45 -163 -49 -8 -7 56 -202 112 -338 38 -94
128 -281 152 -317 7 -10 44 7 158 73 82 47 153 90 157 94 5 5 -12 50 -38 101
-56 112 -123 275 -161 393 -20 61 -33 87 -44 86 -8 0 -86 -20 -173 -43z"/>
<path d="M5715 2828 c-38 -123 -54 -170 -91 -259 -23 -59 -65 -152 -93 -207
l-50 -100 157 -90 c86 -50 160 -88 166 -85 14 9 150 298 189 403 19 52 46 132
60 177 23 74 24 83 9 87 -73 21 -322 86 -331 86 -7 0 -13 -6 -16 -12z"/>
<path d="M1417 2549 c-101 -58 -155 -95 -150 -102 53 -92 273 -377 291 -377 4
0 64 57 134 128 l127 127 -59 70 c-33 39 -88 109 -121 158 -33 48 -61 87 -62
87 -1 0 -73 -41 -160 -91z"/>
<path d="M4623 2562 c-28 -42 -78 -108 -110 -146 -32 -38 -62 -75 -68 -82 -8
-11 20 -44 117 -141 l127 -127 22 20 c40 35 163 188 223 277 52 75 58 89 45
101 -13 12 -294 176 -301 176 -2 -1 -26 -35 -55 -78z"/>
<path d="M1038 2331 c-81 -47 -150 -89 -154 -93 -19 -20 312 -460 358 -477 11
-4 258 238 258 252 0 5 -29 41 -64 81 -71 80 -174 216 -212 282 -14 24 -29 44
-32 43 -4 -1 -73 -40 -154 -88z"/>
<path d="M5002 2333 c-63 -94 -127 -176 -206 -268 l-49 -56 124 -125 c68 -68
129 -124 135 -124 24 0 180 186 286 340 103 150 107 127 -35 208 -67 38 -139
79 -159 91 l-37 22 -59 -88z"/>
<path d="M2429 2298 c-23 -40 -64 -111 -91 -157 -27 -46 -47 -85 -46 -86 13
-11 149 -74 218 -100 142 -55 279 -86 493 -109 l47 -6 0 183 0 183 -107 17
c-137 20 -265 57 -372 108 -46 21 -87 39 -92 39 -4 0 -27 -33 -50 -72z"/>
<path d="M3697 2339 c-121 -63 -310 -114 -463 -125 l-84 -7 0 -185 0 -184 88
6 c207 16 394 62 582 142 162 70 157 47 54 228 -54 94 -95 156 -104 155 -8 0
-41 -13 -73 -30z"/>
<path d="M1744 2139 l-129 -130 60 -54 c67 -61 229 -183 291 -220 l41 -25 91
158 c83 143 90 158 74 170 -142 104 -224 167 -258 196 l-41 35 -129 -130z"/>
<path d="M4293 2197 c-45 -40 -113 -92 -152 -117 -38 -25 -70 -49 -70 -53 -1
-7 123 -228 165 -295 l15 -22 57 36 c82 53 201 145 272 211 l61 56 -128 129
c-70 70 -130 128 -133 127 -3 0 -42 -33 -87 -72z"/>
<path d="M655 2110 c-82 -48 -151 -93 -153 -99 -10 -29 238 -367 371 -506 l62
-66 129 130 130 130 -65 73 c-36 40 -90 105 -121 143 -60 76 -188 264 -188
277 0 14 -12 8 -165 -82z"/>
<path d="M5397 2127 c-69 -110 -186 -262 -268 -350 l-72 -79 132 -131 132
-132 55 60 c99 107 224 267 305 389 43 65 79 122 79 126 0 4 -57 40 -127 81
-71 40 -142 81 -159 91 l-31 18 -46 -73z"/>
<path d="M2165 1838 c-48 -84 -89 -156 -92 -160 -9 -17 335 -167 419 -183 37
-7 37 -7 48 37 7 23 27 99 46 168 19 69 34 128 34 131 0 4 -42 21 -92 39 -51
17 -132 52 -181 76 -49 24 -90 44 -92 44 -2 0 -43 -69 -90 -152z"/>
<path d="M3895 1940 c-55 -26 -137 -60 -181 -75 l-82 -27 35 -127 c18 -69 39
-147 45 -173 8 -35 16 -48 29 -48 49 0 439 165 439 186 0 11 -174 314 -180
313 -3 0 -50 -22 -105 -49z"/>
<path d="M1432 1827 l-132 -133 91 -79 c155 -136 381 -296 396 -281 3 3 45 74
94 158 l87 152 -82 56 c-111 76 -195 141 -265 205 l-57 54 -132 -132z"/>
<path d="M4650 1918 c-80 -71 -192 -159 -269 -210 -42 -28 -80 -54 -84 -58 -8
-7 155 -304 174 -315 20 -13 282 176 414 299 l70 65 -130 130 -130 130 -45
-41z"/>
<path d="M2677 1768 c-41 -141 -79 -299 -75 -304 15 -14 343 -64 423 -64 l25
0 0 184 0 183 -80 7 c-82 7 -235 31 -263 42 -11 4 -19 -7 -30 -48z"/>
<path d="M3465 1799 c-49 -10 -141 -22 -202 -25 l-113 -7 0 -184 0 -183 53 0
c99 0 438 48 454 64 5 5 -91 356 -97 355 -3 -1 -45 -10 -95 -20z"/>
<path d="M1117 1512 l-128 -129 66 -61 c135 -127 466 -372 501 -372 12 0 184
288 184 308 0 5 -30 29 -67 52 -93 58 -231 163 -335 254 -47 42 -88 76 -90 76
-2 0 -61 -58 -131 -128z"/>
<path d="M4959 1604 c-54 -57 -235 -200 -344 -272 -55 -36 -102 -67 -104 -68
-8 -6 175 -313 187 -314 16 0 200 122 297 197 108 83 265 224 265 237 0 14
-241 256 -256 256 -5 0 -26 -16 -45 -36z"/>
<path d="M1946 1460 c-47 -82 -87 -154 -88 -161 -4 -16 64 -54 200 -114 104
-45 324 -125 346 -125 7 0 18 21 24 48 6 26 27 104 46 174 l34 127 -111 38
c-61 20 -168 65 -238 99 l-127 62 -86 -148z"/>
<path d="M4175 1584 c-59 -35 -227 -107 -325 -140 -47 -15 -89 -31 -93 -34 -7
-7 75 -335 87 -347 22 -22 556 198 556 229 0 12 -173 317 -180 317 -3 -1 -23
-12 -45 -25z"/>
<path d="M2531 1223 c-24 -93 -44 -172 -45 -177 -2 -20 272 -68 467 -82 l97
-7 0 181 c0 201 4 192 -75 192 -56 0 -251 27 -330 46 -33 7 -62 14 -65 14 -3
0 -25 -75 -49 -167z"/>
<path d="M3600 1374 c-67 -16 -243 -40 -362 -49 l-88 -7 0 -180 0 -181 118 6
c214 12 502 59 502 83 0 11 -62 247 -86 327 -6 20 -10 20 -84 1z"/>
<path d="M1718 1066 c-49 -85 -88 -157 -88 -160 0 -10 214 -114 329 -160 127
-52 330 -120 337 -113 6 5 93 327 94 343 0 6 -19 16 -42 23 -104 29 -254 88
-387 152 -79 38 -146 69 -150 69 -3 -1 -45 -70 -93 -154z"/>
<path d="M4370 1187 c-86 -49 -285 -131 -402 -168 -59 -19 -106 -38 -104 -44
2 -5 23 -84 46 -175 24 -91 45 -167 47 -169 4 -6 198 57 308 101 137 54 345
157 351 173 7 17 -165 315 -180 314 -6 -1 -36 -15 -66 -32z"/>
<path d="M2456 943 c-33 -110 -85 -328 -79 -333 25 -23 368 -76 551 -86 l122
-7 0 186 0 187 -69 0 c-86 0 -286 25 -406 51 -109 23 -112 23 -119 2z"/>
<path d="M3670 939 c-108 -23 -306 -49 -375 -49 -28 0 -73 -3 -99 -6 l-46 -7
0 -180 0 -180 153 6 c83 4 198 13 254 22 120 17 302 53 318 63 9 5 -1 56 -33
180 -52 197 -34 181 -172 151z"/>
</g>
</svg>
